PathFileType	4	(X/Y/Z)	Kaydara	
DataRate	CameraRate	NumFrames	NumMarkers	Units	OrigDataRate	OrigDataStartFrame	OrigNumFrames	
120.00	120.00	4	72	mm	120.00	34	268	
Frame#	Time	Hips			RightUpLeg			RightLeg			RightFoot			RightFoot_End			LeftUpLeg			LeftLeg			LeftFoot			LeftFoot_End			Spine			Spine1			Spine2			Spine3			Neck			Head			Head_End			RightShoulder			RightArm			RightForeArm			RightHand			RightHandThumb1			RightHandThumb2			RightHandThumb3			RightHandThumb3_End			RightInHandIndex			RightHandIndex1			RightHandIndex2			RightHandIndex3			RightHandIndex3_End			RightInHandMiddle			RightHandMiddle1			RightHandMiddle2			RightHandMiddle3			RightHandMiddle3_End			RightInHandRing			RightHandRing1			RightHandRing2			RightHandRing3			RightHandRing3_End			RightInHandPinky			RightHandPinky1			RightHandPinky2			RightHandPinky3			RightHandPinky3_End			LeftShoulder			LeftArm			LeftForeArm			LeftHand			LeftHandThumb1			LeftHandThumb2			LeftHandThumb3			LeftHandThumb3_End			LeftInHandIndex			LeftHandIndex1			LeftHandIndex2			LeftHandIndex3			LeftHandIndex3_End			LeftInHandMiddle			LeftHandMiddle1			LeftHandMiddle2			LeftHandMiddle3			LeftHandMiddle3_End			LeftInHandRing			LeftHandRing1			LeftHandRing2			LeftHandRing3			LeftHandRing3_End			LeftInHandPinky			LeftHandPinky1			LeftHandPinky2			LeftHandPinky3			LeftHandPinky3_End			
		X1	Y1	Z1	X2	Y2	Z2	X3	Y3	Z3	X4	Y4	Z4	X5	Y5	Z5	X6	Y6	Z6	X7	Y7	Z7	X8	Y8	Z8	X9	Y9	Z9	X10	Y10	Z10	X11	Y11	Z11	X12	Y12	Z12	X13	Y13	Z13	X14	Y14	Z14	X15	Y15	Z15	X16	Y16	Z16	X17	Y17	Z17	X18	Y18	Z18	X19	Y19	Z19	X20	Y20	Z20	X21	Y21	Z21	X22	Y22	Z22	X23	Y23	Z23	X24	Y24	Z24	X25	Y25	Z25	X26	Y26	Z26	X27	Y27	Z27	X28	Y28	Z28	X29	Y29	Z29	X30	Y30	Z30	X31	Y31	Z31	X32	Y32	Z32	X33	Y33	Z33	X34	Y34	Z34	X35	Y35	Z35	X36	Y36	Z36	X37	Y37	Z37	X38	Y38	Z38	X39	Y39	Z39	X40	Y40	Z40	X41	Y41	Z41	X42	Y42	Z42	X43	Y43	Z43	X44	Y44	Z44	X45	Y45	Z45	X46	Y46	Z46	X47	Y47	Z47	X48	Y48	Z48	X49	Y49	Z49	X50	Y50	Z50	X51	Y51	Z51	X52	Y52	Z52	X53	Y53	Z53	X54	Y54	Z54	X55	Y55	Z55	X56	Y56	Z56	X57	Y57	Z57	X58	Y58	Z58	X59	Y59	Z59	X60	Y60	Z60	X61	Y61	Z61	X62	Y62	Z62	X63	Y63	Z63	X64	Y64	Z64	X65	Y65	Z65	X66	Y66	Z66	X67	Y67	Z67	X68	Y68	Z68	X69	Y69	Z69	X70	Y70	Z70	X71	Y71	Z71	X72	Y72	Z72	

34	0.275	1446.805	859.65103	-201.189	1540.5360939990485	857.4560053958513	-232.58171625278288	1392.1526159182347	468.7259174612911	-293.11593026858293	1418.5937086166814	40.40270719099344	-341.2461455423889	1328.6383996934737	-34.36779085720357	-179.1118442030001	1363.127163965482	834.4063634380668	-155.59859148715418	1242.8062541807349	436.14321600952337	-105.13569814387765	1190.0378787255813	58.600523276851376	63.48116236101555	1217.3148052026047	14.275462889403697	246.9868105268199	1397.1271384414497	979.6145814231677	-261.41141810262434	1341.583711319524	1042.2018408937831	-310.711845511979	1277.2351223312269	1100.6681213102652	-362.4216031746558	1206.9055523433613	1145.6331433151943	-412.36382882268157	1131.1350372446802	1194.3898470729005	-462.2970109175937	1089.2093838076305	1266.4532107427797	-417.26325683815674	1065.8471511894993	1351.115523277901	-283.5757617852059	1176.9363205049813	1185.4648741894566	-466.358560251087	1259.2863895702735	1186.0365376425816	-548.830832678599	1320.2863520885871	958.3527577854844	-573.9517167397219	1408.572239887357	840.6097328618589	-653.5647062292302	1409.4971991795503	841.224973348713	-669.8285073287543	1397.654032195107	838.0743141847579	-686.0631699201498	1390.87046987219	833.9759776212957	-695.9676617562652	1386.467726974433	828.930364123532	-703.0258045040346	1416.6818356580575	834.168619184501	-666.0940960945316	1426.485723515096	818.5034325815692	-680.925254470948	1423.4174996723893	809.1333391647311	-692.3316711396972	1414.1276073186896	806.9152359639429	-700.0094693726389	1401.458726965376	807.5125300243291	-706.7599631728177	1419.8523678648794	829.6074787875173	-661.8180916777167	1431.132558237824	811.8605604205105	-673.9707487965009	1428.1587071400725	801.0868187300746	-685.8064570999817	1417.1303345145222	798.1472784592074	-694.7762594487391	1403.355557414985	798.6727273370224	-702.0199940801836	1421.9541239551859	826.753663484176	-658.4013979869155	1434.2154453686244	808.280535295373	-666.2762497886511	1431.9868716620456	798.3571674682388	-675.9488719420816	1421.5421285841053	795.2387433637293	-684.2592640582124	1408.6818120617259	795.5986963931333	-690.9082797963774	1423.2105708561255	824.1634358509438	-654.1695262492537	1435.6099929343359	805.5136608641146	-658.7303368498397	1434.338149981141	796.8167598944576	-665.437785115099	1426.967732454941	794.1790466493807	-670.9972904182515	1415.7183181980195	794.2889409403139	-676.5982508254505	1135.0154435910206	1174.1377586024244	-422.979735236186	1076.8894441123184	1106.9173688590572	-343.16996315344454	1183.9237220404143	968.1287081777527	-517.7803893721424	1375.7943658554566	885.2989173540254	-507.08886955384133	1364.3315572907459	890.736116773359	-513.2694158296699	1366.4274707455793	888.5919460510875	-541.5819339541334	1368.9126297325954	885.1880600345478	-563.3757948096745	1371.861737086046	880.7158371767417	-583.3212389035996	1365.725228607671	884.5759047041807	-519.8722067170002	1359.4724218951592	875.5600188296324	-553.2194515653359	1361.6966166203465	868.2697125565655	-583.9566014187693	1366.3384857787605	865.4355975797747	-602.9199821972497	1372.3789352005892	864.2353286236208	-618.5175278621392	1369.044777525793	879.6446563529184	-524.7186455395143	1364.7396580961972	868.1838005405885	-559.8638433355352	1367.6331902296938	859.6059361817652	-593.9449049580111	1373.4573135286269	855.8878614517935	-617.082990088046	1380.1754864460445	854.4292948382213	-634.2756853224307	1371.4882956635226	876.3868208579703	-527.2354318167645	1369.5718235016889	863.2759757891301	-560.7527121513182	1372.578114036753	855.1811314380803	-590.9558014527879	1378.4531239223015	851.2663797801946	-613.538732196994	1384.8917901917682	849.7393458757717	-629.8294998926494	1374.9686853652431	872.924443985234	-529.6132072374613	1375.1488316663647	858.748492744555	-561.6429560310775	1378.3204921283796	851.3589462065994	-586.4595057888941	1382.9754920638857	848.0645284115301	-603.2368393130135	1388.8918735733932	846.4591879332175	-617.8434807211743
35	0.283	1446.805	859.65103	-201.189	1540.3471433752097	857.4263568259893	-232.55997029010126	1392.2444681384384	468.61980807612645	-292.87496737651793	1419.2124032123486	40.61063591097464	-341.46082398092	1329.566760033812	-34.26321406593233	-179.4281979012548	1363.2966790425685	834.4244224199986	-155.63076466638788	1242.9631167757655	436.19390606708384	-105.03001150779959	1190.1207906698346	58.70544463380352	63.70558607408235	1217.557822932853	14.392175650672879	247.16425207086982	1397.2235989913936	979.6672529439492	-261.36699072955383	1341.7390580591998	1042.3289253474566	-310.62312254761963	1277.41826226026	1100.8304499432832	-362.29218623357906	1207.1610063578717	1145.9082894845915	-412.19919450348266	1131.4908652992492	1194.8262844240378	-462.09077200625865	1089.5906303457375	1266.9192981545502	-417.0907602388888	1066.205610788662	1351.6315566564322	-283.4539430615239	1177.226094070742	1185.8671068956698	-466.1119513503361	1259.4423707201872	1186.527147389284	-548.3503033336951	1320.8003736744872	959.2126868225316	-573.3302751914855	1409.182358069533	842.2847414911612	-653.1245688146437	1410.1315420164956	843.0751870109988	-669.2766437724446	1398.38578090568	840.070102373518	-685.4858278217253	1391.671556176036	836.0652221870201	-695.3889349732317	1387.3278784434929	831.0907573148548	-702.4599366433257	1417.3172326490565	836.0099168556728	-665.585667703679	1427.193546859059	820.5548041757278	-680.3948220355965	1424.2105625482952	811.3127789345244	-691.812663367091	1414.9859646778646	809.1544787196001	-699.5005967128062	1402.3794095847993	809.7879217768924	-706.261516035595	1420.4909599768873	831.4190777145777	-661.3562287085819	1431.843512058283	813.8609866074104	-673.5126006083242	1428.9629083121347	803.2223663650094	-685.3670187117817	1418.013417934528	800.3527601777733	-694.3520446049984	1404.3068960192145	800.9166829979325	-701.6086496025464	1422.5927916144915	828.5390757301996	-657.9728221649293	1434.9180750241703	810.212976769309	-665.8794051280659	1432.770904644429	800.4023509832946	-675.5747096889176	1422.402322462629	797.3487196187809	-683.9031815112953	1409.606201100356	797.7435765472588	-690.5659063545497	1423.8498360040332	825.9112198156799	-653.7812790475774	1436.3072041123205	807.3737543934109	-658.3954930472532	1435.1004648470043	798.7586557226688	-665.1309213599433	1427.7855458305585	796.1640893967498	-670.7083698827172	1416.5929899377645	796.3025474344271	-676.3242080289492	1135.3712751579494	1174.4943163396867	-422.8418355510303	1077.2821412844407	1107.2833249927562	-343.29007105316566	1184.2831819110716	968.9774525980175	-517.9789278459497	1375.801470967238	886.7106026665516	-507.17642325484724	1364.4346703156339	892.0893187212936	-513.1691286912924	1366.5283226746317	889.8738765504493	-541.3432419444184	1369.0124766567135	886.4338763740161	-563.0506709720834	1371.9612310194264	881.9431431700174	-582.9325690598782	1365.8512149300316	885.9773610758914	-519.7854324660652	1359.730095959907	876.9739159068333	-552.9245003627412	1361.9816626607858	869.6650108218995	-583.5430887865863	1366.5946003392646	866.7923824923561	-602.4552356469126	1372.5800805644674	865.5420552482099	-618.0255581180086	1369.1646718339528	881.0811803888879	-524.6674338808335	1364.984721998445	869.6514487396008	-559.628808374795	1367.9068158415957	861.0578453453908	-593.5858967208884	1373.6953903515052	857.2954897194298	-616.6647686344351	1380.3531336004933	855.7832166289245	-633.8289255049705	1371.601210298735	877.8481939892516	-527.2144143035217	1369.7928488865698	864.7878621345254	-560.5924514437564	1372.822490607124	856.6839059089007	-590.6932835129735	1378.6623974587365	852.7288762036947	-613.2221873916802	1385.0438431330263	851.1524985005775	-629.4875967461239	1375.0643666496376	874.4111746012517	-529.6349380072397	1375.3353779624854	860.2984444634442	-561.5624425533922	1378.5228503347596	852.9085475889144	-586.306786518015	1383.1508344280494	849.5881287488829	-603.0493967665413	1389.0157400349367	847.9410047035196	-617.6362680093733
36	0.292	1446.805	859.65103	-201.189	1540.1530163925713	857.3839473074696	-232.53705605476014	1392.323820117488	468.50190259673775	-292.6201796643184	1419.7221041311768	40.80400145471504	-341.68364827650623	1330.3976980780894	-34.173561465496974	-179.75060207742928	1363.470163144028	834.4570485783537	-155.6602763804072	1243.1676436625246	436.26613671936127	-104.78374496031704	1190.2455404283962	58.841014299152924	64.09971930785078	1217.8699910917471	14.54736426612725	247.51013032243162	1397.325628938645	979.7127402324232	-261.33940959531583	1341.9038608522449	1042.4472152825444	-310.55730337246575	1277.5380814926423	1100.8733995984956	-362.1998128694594	1207.356905825868	1146.066509299593	-412.07499666792853	1131.7692844638889	1195.1094534523704	-461.92992467898546	1089.8954192403914	1267.2282296396725	-416.9549328188812	1066.5073527920488	1351.9710517716744	-283.3527947320643	1177.4410955033936	1186.121933387803	-465.90938639767063	1259.5193697126633	1186.8807506433677	-547.91974906873	1321.2212865447827	959.9416562421401	-572.7445426602571	1409.7035240158616	843.8293997090044	-652.7240262520891	1410.6639928453608	844.7994284989904	-668.7558671077807	1399.016564214129	841.9442026376237	-684.9254076999251	1392.3743593851977	838.035328130205	-694.8182041852142	1388.0937689435561	833.1337530457619	-701.8953968737146	1417.8559953019872	837.7239939297905	-665.1116129242367	1427.8045971147078	822.4824103010415	-679.8909645531329	1424.9116713227752	813.3712081832282	-691.310732951147	1415.75638378933	811.2747316742885	-699.0005365058955	1403.216184225216	811.9461857623742	-705.7634735279983	1421.0387459473388	833.1021462597341	-660.9313264639388	1432.46667034927	815.7355601950576	-673.0852034173773	1429.6853463455384	805.2348899420897	-684.948338014117	1418.8199678998667	802.437565722154	-693.9388109836619	1405.1862770313555	803.0419519364831	-701.1991533099242	1423.1447448467325	830.1949680906405	-657.5832856962751	1435.5401255202116	812.0173785846596	-665.517977085493	1433.4803976590047	802.3217733090428	-675.227638780916	1423.1934125098528	799.3350826834898	-683.5649505000185	1410.466021646718	799.7666860891995	-690.2329008602094	1424.4073756255966	827.5282592354453	-653.4343326701488	1436.9312768449531	809.1036927482326	-658.1001596663282	1435.795677539499	800.5719164548967	-664.8575273656269	1428.5408302328797	798.021938203783	-670.4464583956317	1417.4094582165517	798.1904852224459	-676.0698207587136	1135.658020191301	1174.7162906794665	-422.7488701946547	1077.628293421099	1107.5351367702872	-343.45321507386365	1184.5787506363686	969.6604462927783	-518.0764679949579	1375.7810694790771	887.9678354585229	-507.19557561585765	1364.5100777169368	893.3184649048962	-513.0531025398595	1366.630853694734	891.0483053885133	-541.1118592073441	1369.133247676139	887.5805049008358	-562.7434027328873	1372.096672022751	883.0753975189199	-582.5658776713369	1365.9416888882915	887.2467689379758	-519.6701409107367	1359.9505422840318	878.2745137076504	-552.632863486075	1362.2468286706685	870.9557152253112	-583.1441832094671	1366.8528845355622	868.0487758137475	-602.0081759172583	1372.809305739593	866.7510512260133	-617.5511387005162	1369.246700441624	882.3760209093272	-524.5711731363868	1365.1889767253112	870.9904718270219	-559.3708338717661	1368.1582670420141	862.3892810673399	-593.2139770160551	1373.937790467257	858.587078668235	-616.2362389693471	1380.5633530774037	857.0236985696253	-633.3711783803616	1371.6744473679332	879.1605947792979	-527.1359456190647	1369.969410679968	866.1562653686366	-560.3840107462164	1373.0383729516466	858.0488996787685	-590.3889602301128	1378.8685676160553	854.0571382909554	-612.86507714441	1385.2193046742807	852.4335194253842	-629.1038682647088	1375.1198731970612	875.7398146879032	-529.5833574219331	1375.4763960250482	861.6897696695594	-561.4076272340991	1378.6920497907834	854.3019168211581	-586.0811125747233	1383.3113626406036	850.9570096545546	-602.7880730375874	1389.148135423594	849.2693632096176	-617.3530178826634
37	0.3	1446.805	859.65103	-201.189	1539.9545718760187	857.349854322281	-232.51947695758494	1392.3862160481904	468.4013111419436	-292.38936695137943	1418.9209148870461	40.735000325326574	-341.2585141125332	1329.9193691763262	-34.344461041056434	-179.42649187041494	1363.6528408601807	834.4831681879971	-155.68440772637433	1243.267169901156	436.3424538079863	-104.70289789470343	1190.2925922544264	58.97744688043151	64.32712908546605	1218.0908806389737	14.662555369552937	247.67571969228396	1397.4065610677262	979.7498332727963	-261.311657511061	1342.0415392849104	1042.5519627591925	-310.4906050993942	1277.593170201706	1100.8505982147808	-362.10981371435173	1207.4854181937824	1146.1556744961676	-411.9519127492312	1131.94781768034	1195.266426529354	-461.7710815660599	1090.0967155474207	1267.4030122993115	-416.8119422523418	1066.7206520001932	1352.1587678158562	-283.23075137005856	1177.5600813424749	1186.2606269788014	-465.71054622718253	1259.49921824183	1187.1173742973276	-547.4912372025258	1321.5524822861444	960.5517927705589	-572.1668839526227	1410.1234015903979	845.2567160039899	-652.3136868838021	1411.1049036589784	846.4086624371992	-668.2252975475599	1399.5643715475758	843.7000513967724	-684.3588252184153	1392.9997609000775	839.8844952569431	-694.244265139633	1388.7865484869671	835.0531855868411	-701.330494123717	1418.3028504928207	839.322214553145	-664.6290699799905	1428.3359352852162	824.2928135178115	-679.3831429465961	1425.5407218445184	815.3090439894506	-690.8091731838302	1416.4584048652323	813.2713788911842	-698.5034873142059	1403.9868804717237	813.9777423048964	-705.2705877513379	1421.4930891245347	834.6681150315496	-660.4989999886163	1433.0074491690234	817.4910503825342	-672.6553721900882	1430.3335091649074	807.124466193219	-684.5320765379035	1419.5565420897321	804.395706154022	-693.5312278841675	1405.998169280235	805.0371411691842	-700.7976901394705	1423.6018608684776	831.7329183520773	-657.1869438085355	1436.0760715074753	813.7014301835283	-665.1547296058261	1434.1105847619206	804.1173125818648	-674.8831032897996	1423.9092324147525	801.1939110070925	-683.2324428881177	1411.2528113495537	801.6589804705585	-689.9078740378242	1424.868053270243	829.0262919287727	-653.0812399628054	1437.4652917179692	810.7118177386939	-657.8036348691832	1436.405818411934	802.2602862025358	-664.5865821389756	1429.21376046604	799.75209625129	-670.1894031986241	1418.14544244342	799.9477875765639	-675.8223550423046	1135.861260108931	1174.8406552196373	-422.6578170772337	1077.906047989745	1107.712569329564	-343.6165614178475	1184.7829656055105	970.2102119007382	-518.0218697446045	1375.6825059296093	889.0888223410019	-507.06348321717564	1364.5122208430612	894.4862935662849	-512.866398312207	1366.6981162464872	892.2103062772508	-540.8439728354555	1369.240610799331	888.7417327012814	-562.4178267625165	1372.2329511921018	884.2387785043067	-582.1911807848231	1365.9378120914853	888.4380920666687	-519.4754900893715	1360.0562985176548	879.5533201532289	-552.3325911587727	1362.4096404581533	872.2556711049486	-582.7634687643821	1367.036399413345	869.3306241702512	-601.582791585205	1372.9999902372665	867.9968333819455	-617.0923889769044	1369.223792901715	883.5713415199405	-524.3766614943007	1365.2627079713725	872.2732759526348	-559.0733707580317	1368.2913647646244	863.6953735615498	-592.829081215685	1374.0944807249366	859.8714150903461	-615.797628761665	1380.7272188758536	858.2686234880296	-632.8961429818285	1371.6354746068653	880.356949664207	-526.9442527730652	1370.0036351308909	867.4332107240334	-560.1026485689831	1373.121233784202	859.3462023387627	-590.0319106581437	1378.9725331274535	855.3334868958107	-612.4564903013849	1385.329229674287	853.67281896618	-628.6611695685897	1375.0577755290458	876.9313321423152	-529.3976692595048	1375.4678178243773	862.9537547763458	-561.143486754725	1378.717248752329	855.5819288155633	-585.7575665169119	1383.3494593787084	852.2216083496792	-602.4275209076927	1389.1900654164547	850.5010666191132	-616.962575978082
